<svg width="172" height="27" viewBox="0 0 172 27" fill="none" xmlns="http://www.w3.org/2000/svg">
<path d="M47.5444 14.1612C45.567 14.1617 43.9147 13.4857 42.5874 12.1331C41.2601 10.7675 40.5962 9.08945 40.5956 7.09904C40.5951 5.12164 41.2581 3.44978 42.5847 2.08346C43.9113 0.717135 45.5958 0.0337024 47.6382 0.0331585C48.8221 0.0328433 49.8238 0.214706 50.6435 0.578746C51.4762 0.942782 52.2569 1.46945 52.9856 2.15874L51.4445 3.93491C50.2213 2.80343 48.9463 2.23787 47.6193 2.23823C46.3184 2.23857 45.2388 2.70719 44.3804 3.64409C43.535 4.58097 43.1126 5.7324 43.1129 7.09837C43.1133 8.45133 43.5429 9.60253 44.4017 10.552C45.2606 11.4884 46.334 11.9565 47.6219 11.9561C48.4025 11.9559 49.0919 11.8126 49.6903 11.5263C50.2886 11.2269 50.9064 10.7779 51.5437 10.1793L53.0857 11.74C52.3184 12.5468 51.5055 13.1519 50.647 13.5554C49.7885 13.959 48.7543 14.1609 47.5444 14.1612Z" fill="white"/>
<path d="M66.8772 12.0876C65.5246 13.4669 63.8141 14.1569 61.7456 14.1574C59.6772 14.158 57.9728 13.4754 56.6325 12.1098C55.2921 10.7442 54.6217 9.07271 54.6212 7.09531C54.6207 5.14392 55.2967 3.47856 56.6493 2.09923C58.0019 0.719888 59.7124 0.0299437 61.7809 0.029393C63.8494 0.0288422 65.5538 0.711372 66.8941 2.07698C68.2344 3.4426 68.9048 5.1141 68.9053 7.0915C68.9058 9.04289 68.2298 10.7082 66.8772 12.0876ZM58.4468 10.5482C59.3317 11.4847 60.4441 11.9527 61.7841 11.9523C63.124 11.952 64.2232 11.4834 65.0815 10.5465C65.9529 9.60958 66.3884 8.45814 66.388 7.09217C66.3877 5.73922 65.9451 4.59452 65.0602 3.65809C64.1883 2.70865 63.0824 2.23411 61.7425 2.23447C60.4025 2.23482 59.2968 2.70345 58.4255 3.64035C57.5671 4.57724 57.1381 5.72867 57.1385 7.09464C57.1388 8.4476 57.575 9.5988 58.4468 10.5482Z" fill="white"/>
<path d="M71.8071 13.9206L71.8034 0.26089L74.028 0.260297L81.3482 9.70304L81.3457 0.258349L83.7069 0.25772L83.7105 13.9174L81.7006 13.9179L74.1657 4.20206L74.1683 13.9199L71.8071 13.9206Z" fill="white"/>
<path d="M92.0047 14.1103C89.8322 14.1109 87.9326 13.3829 86.3061 11.9263L87.7497 10.2087C89.1159 11.3922 90.5536 11.9837 92.0627 11.9833C92.8042 11.9831 93.3896 11.8268 93.8188 11.5145C94.261 11.1892 94.4821 10.7598 94.4819 10.2264C94.4818 9.71906 94.2735 9.31583 93.8572 9.01673C93.4408 8.70462 92.6211 8.40563 91.3982 8.11975C89.811 7.7429 88.653 7.26838 87.9243 6.69616C87.2087 6.11094 86.8507 5.2199 86.8504 4.02305C86.8501 2.85222 87.2856 1.90243 88.157 1.17369C89.0285 0.431928 90.1472 0.0608675 91.5131 0.0605038C93.3865 0.060005 95.0388 0.631971 96.4701 1.7764L95.1827 3.59153C93.9205 2.6552 92.6845 2.1872 91.4747 2.18752C90.7852 2.18771 90.2388 2.34396 89.8356 2.65629C89.4454 2.96862 89.2504 3.36545 89.2505 3.84679C89.2507 4.38017 89.4654 4.79641 89.8948 5.0955C90.3372 5.38159 91.2024 5.68057 92.4904 5.99245C93.9996 6.35631 95.1055 6.84386 95.8081 7.4551C96.5238 8.06635 96.8818 8.92486 96.8821 10.0306C96.8824 11.2925 96.4339 12.2879 95.5364 13.0166C94.639 13.7454 93.4617 14.1099 92.0047 14.1103Z" fill="white"/>
<path d="M105.306 14.1263C103.498 14.1268 102.073 13.6133 101.032 12.5859C100.004 11.5584 99.4901 10.069 99.4896 8.11759L99.4875 0.253519L101.888 0.25288L101.89 8.01939C101.89 9.26827 102.196 10.2309 102.808 10.9072C103.419 11.5835 104.265 11.9215 105.345 11.9212C106.425 11.9209 107.264 11.5955 107.862 10.9449C108.473 10.2942 108.778 9.351 108.778 8.11512L108.776 0.251046L111.176 0.250407L111.178 7.9974C111.179 9.98781 110.659 11.51 109.618 12.5641C108.578 13.6051 107.141 14.1258 105.306 14.1263Z" fill="white"/>
<path d="M114.475 13.9092L114.471 0.249529L116.871 0.24889L116.874 11.723L124.055 11.7211L124.056 13.9067L114.475 13.9092Z" fill="white"/>
<path d="M127.969 13.9056L127.966 2.47051L123.634 2.47167L123.633 0.24709L134.717 0.244139L134.718 2.46872L130.386 2.46987L130.389 13.905L127.969 13.9056Z" fill="white"/>
<path d="M137.403 13.9031L137.399 0.243425L139.799 0.242785L139.803 13.9025L137.403 13.9031Z" fill="white"/>
<path d="M143.459 13.9015L143.456 0.241812L145.68 0.24122L153.001 9.68397L152.998 0.239271L155.359 0.238643L155.363 13.8983L153.353 13.8989L145.818 4.18298L145.821 13.9009L143.459 13.9015Z" fill="white"/>
<path d="M165.355 14.1298C163.247 14.1304 161.536 13.4674 160.222 12.1408C158.921 10.8012 158.27 9.11016 158.269 7.06771C158.269 5.11633 158.932 3.45097 160.258 2.07164C161.598 0.692305 163.283 0.00236759 165.312 0.00182724C166.457 0.00152243 167.433 0.157373 168.239 0.46938C169.046 0.768377 169.82 1.23 170.562 1.85424L169.04 3.66943C168.468 3.17524 167.889 2.81113 167.303 2.57712C166.731 2.3301 166.035 2.2067 165.215 2.20692C163.966 2.20725 162.913 2.68237 162.054 3.63227C161.209 4.58217 160.786 5.72709 160.787 7.06704C160.787 8.48505 161.217 9.65576 162.076 10.5792C162.934 11.4896 164.053 11.9446 165.432 11.9443C166.707 11.9439 167.806 11.5989 168.73 10.9092L168.729 8.35284L165.236 8.35377L165.236 6.26579L171.051 6.26424L171.052 12.0013C169.4 13.4198 167.501 14.1293 165.355 14.1298Z" fill="white"/>
<path d="M41.7721 24.1207H41.0298V19.9454H43.6742V20.6412H41.7721V24.1207Z" fill="white"/>
<path d="M49.4947 25.9764H48.7524V19.9454H49.4947V20.4371C49.6431 20.2639 49.8473 20.1247 50.1071 20.0196C50.3669 19.9082 50.6359 19.8526 50.9143 19.8526C51.5081 19.8526 51.9752 20.0505 52.3154 20.4464C52.668 20.8361 52.8442 21.3433 52.8442 21.9681C52.8442 22.6052 52.6432 23.1403 52.2411 23.5733C51.8453 24.0001 51.3226 24.2135 50.6731 24.2135C50.172 24.2135 49.7792 24.1176 49.4947 23.9259V25.9764ZM50.7009 20.5485C50.206 20.5485 49.804 20.7402 49.4947 21.1237V23.1929C49.8225 23.4094 50.1937 23.5176 50.6081 23.5176C51.0473 23.5176 51.3968 23.3784 51.6566 23.1001C51.9226 22.8155 52.0556 22.4475 52.0556 21.9959C52.0556 21.5567 51.9349 21.2072 51.6937 20.9474C51.4525 20.6815 51.1215 20.5485 50.7009 20.5485Z" fill="white"/>
<path d="M61.0566 19.9454H61.9009L60.2308 24.1207C59.9277 24.8568 59.6648 25.3455 59.4421 25.5867C59.2071 25.8465 58.938 25.9764 58.6349 25.9764C58.3627 25.9764 58.0998 25.8898 57.8462 25.7166L58.0874 25.1506C58.2854 25.2434 58.44 25.2898 58.5514 25.2898C58.7246 25.2898 58.8792 25.2156 59.0153 25.0671C59.1576 24.9187 59.2998 24.6774 59.4421 24.3434L59.5349 24.1207L57.5307 19.9454H58.4215L59.6462 22.599C59.671 22.6423 59.7545 22.8526 59.8968 23.23C59.9524 23.0258 60.0174 22.8124 60.0916 22.5897L61.0566 19.9454Z" fill="white"/>
<path d="M70.7825 24.1207H70.0402V20.6412H67.767V24.1207H67.0247V19.9454H70.7825V24.1207Z" fill="white"/>
<path d="M80.2448 24.1207H79.5025V20.6412H77.2293V24.1207H76.487V19.9454H80.2448V24.1207Z" fill="white"/>
<path d="M86.172 20.8268L85.9772 20.233C86.3916 19.9794 86.8556 19.8526 87.369 19.8526C87.9319 19.8526 88.3401 19.9917 88.5937 20.2701C88.8474 20.5485 88.9742 20.9784 88.9742 21.5598V24.1207H88.269V23.5826C87.9412 23.9846 87.4958 24.1857 86.9329 24.1857C86.5494 24.1857 86.2401 24.0712 86.005 23.8424C85.77 23.6073 85.6524 23.2918 85.6524 22.8959C85.6524 22.4877 85.7978 22.166 86.0885 21.931C86.3793 21.6897 86.7597 21.5691 87.2298 21.5691C87.669 21.5691 88.0154 21.6588 88.269 21.8382C88.269 21.3681 88.204 21.0309 88.0741 20.8268C87.9442 20.6227 87.6937 20.5206 87.3226 20.5206C86.9452 20.5206 86.5617 20.6227 86.172 20.8268ZM87.1927 23.5176C87.6071 23.5176 87.9659 23.3382 88.269 22.9794V22.4506C88.0092 22.265 87.6968 22.1722 87.3319 22.1722C87.0782 22.1722 86.8648 22.2341 86.6916 22.3578C86.5246 22.4753 86.4411 22.6423 86.4411 22.8588C86.4411 23.063 86.5061 23.2238 86.636 23.3413C86.772 23.4588 86.9576 23.5176 87.1927 23.5176Z" fill="white"/>
<path d="M103.705 19.9454H104.679L102.851 21.9402L104.855 24.1207H103.825L101.942 21.9866L103.705 19.9454ZM101.765 24.1207H101.023V19.9454H101.765V24.1207Z" fill="white"/>
<path d="M110.113 23.6011C109.704 23.1805 109.5 22.6578 109.5 22.033C109.5 21.4021 109.704 20.8825 110.113 20.4742C110.527 20.0598 111.065 19.8526 111.727 19.8526C112.389 19.8526 112.924 20.0598 113.332 20.4742C113.747 20.8825 113.954 21.4021 113.954 22.033C113.954 22.664 113.747 23.1867 113.332 23.6011C112.924 24.0094 112.389 24.2135 111.727 24.2135C111.071 24.2135 110.533 24.0094 110.113 23.6011ZM110.697 20.966C110.425 21.2382 110.289 21.5938 110.289 22.033C110.289 22.4722 110.422 22.8279 110.688 23.1001C110.96 23.3784 111.306 23.5176 111.727 23.5176C112.148 23.5176 112.491 23.3815 112.757 23.1093C113.029 22.831 113.165 22.4722 113.165 22.033C113.165 21.6062 113.029 21.2505 112.757 20.966C112.491 20.6876 112.148 20.5485 111.727 20.5485C111.306 20.5485 110.963 20.6876 110.697 20.966Z" fill="white"/>
<path d="M120.128 24.1207H119.386V19.9454H120.063L121.668 22.0145L123.19 19.9454H123.849V24.1207H123.107V21.0773L121.659 23.0166H121.631L120.128 21.0773V24.1207Z" fill="white"/>
<path d="M133.313 24.1207H132.571V20.6412H130.297V24.1207H129.555V19.9454H133.313V24.1207Z" fill="white"/>
<path d="M139.24 20.8268L139.045 20.233C139.46 19.9794 139.924 19.8526 140.437 19.8526C141 19.8526 141.408 19.9917 141.662 20.2701C141.915 20.5485 142.042 20.9784 142.042 21.5598V24.1207H141.337V23.5826C141.009 23.9846 140.564 24.1857 140.001 24.1857C139.617 24.1857 139.308 24.0712 139.073 23.8424C138.838 23.6073 138.72 23.2918 138.72 22.8959C138.72 22.4877 138.866 22.166 139.157 21.931C139.447 21.6897 139.828 21.5691 140.298 21.5691C140.737 21.5691 141.083 21.6588 141.337 21.8382C141.337 21.3681 141.272 21.0309 141.142 20.8268C141.012 20.6227 140.762 20.5206 140.391 20.5206C140.013 20.5206 139.63 20.6227 139.24 20.8268ZM140.261 23.5176C140.675 23.5176 141.034 23.3382 141.337 22.9794V22.4506C141.077 22.265 140.765 22.1722 140.4 22.1722C140.146 22.1722 139.933 22.2341 139.76 22.3578C139.593 22.4753 139.509 22.6423 139.509 22.8588C139.509 23.063 139.574 23.2238 139.704 23.3413C139.84 23.4588 140.026 23.5176 140.261 23.5176Z" fill="white"/>
<path d="M151.45 24.1207H150.708V22.3578H148.388V24.1207H147.646V19.9454H148.388V21.6619H150.708V19.9454H151.45V24.1207Z" fill="white"/>
<path d="M160.308 21.0124L157.896 24.1207H157.154V19.9454H157.896V23.0537L160.308 19.9454H161.051V24.1207H160.308V21.0124Z" fill="white"/>
<path d="M169.916 21.0124L167.503 24.1207H166.761V19.9454H167.503V23.0537L169.916 19.9454H170.658V24.1207H169.916V21.0124ZM167.355 17.8113H168.051C168.088 18.3 168.326 18.5443 168.765 18.5443C169.18 18.5443 169.405 18.3 169.443 17.8113H170.138C170.138 18.1886 170.009 18.501 169.749 18.7484C169.495 18.9897 169.167 19.1103 168.765 19.1103C168.326 19.1103 167.98 18.9928 167.726 18.7577C167.479 18.5165 167.355 18.201 167.355 17.8113Z" fill="white"/>
<path d="M14.4458 9.75923L14.9339 9.56336C15.033 9.7413 15.1251 9.92337 15.2099 10.1092C15.6282 11.0257 15.8613 12.0154 15.8957 13.0217C15.8996 13.1335 15.9009 13.2453 15.8999 13.3569L14.4458 9.75923Z" fill="white"/>
<path d="M21.0955 26.2121L18.9342 20.8647C19.5887 19.945 20.1229 18.9431 20.5216 17.8827C21.1278 16.2711 21.4094 14.5563 21.3505 12.8362C21.3431 12.6204 21.3304 12.4051 21.3124 12.1904L26.9794 26.2121H21.0955Z" fill="white"/>
<path d="M31.6943 0.000143508H37.5783L26.9844 26.2121H21.1004L31.6943 0.000143508Z" fill="white"/>
<path d="M19.6648 8.09067C20.3258 9.68076 20.666 11.385 20.666 13.1061C20.666 14.8272 20.3258 16.5315 19.6648 18.1216C19.0038 19.7117 18.035 21.1565 16.8136 22.3735C15.5923 23.5905 14.1424 24.5558 12.5466 25.2145C10.9508 25.8731 9.24052 26.2121 7.51329 26.2121V20.7735C8.52378 20.7735 9.52437 20.5752 10.4579 20.1899C11.3915 19.8046 12.2398 19.2398 12.9543 18.5278C13.6688 17.8158 14.2356 16.9706 14.6223 16.0403C15.009 15.1101 15.208 14.113 15.208 13.1061C15.208 12.0992 15.009 11.1022 14.6223 10.1719C14.2356 9.24167 13.6688 8.39642 12.9543 7.68444C12.2398 6.97245 11.3915 6.40768 10.4579 6.02235C9.52437 5.63703 8.52377 5.4387 7.51329 5.4387V0.00012207C9.24052 0.000122243 10.9508 0.339118 12.5466 0.997757C14.1424 1.65639 15.5923 2.62178 16.8136 3.83878C18.035 5.05578 19.0038 6.50058 19.6648 8.09067Z" fill="white"/>
<path d="M0 0.000122589L7.51329 0.00012207V5.4387L0 5.43871V0.000122589Z" fill="white"/>
<path d="M7.51329 20.7735L0 20.7735V26.2121L7.51329 26.2121V20.7735Z" fill="white"/>
</svg>
